<svg xmlns="http://www.w3.org/2000/svg" xmlns:xlink="http://www.w3.org/1999/xlink" version="1.1" width="256" height="256" viewBox="0 0 256 256" xml:space="preserve">
<g style="stroke: none; stroke-width: 0; stroke-dasharray: none; stroke-linecap: butt; stroke-linejoin: miter; stroke-miterlimit: 10; fill: none; fill-rule: nonzero; opacity: 1;" transform="translate(1.4065934065934016 1.4065934065934016) scale(2.81 2.81)">
	<path d="M 89 27.189 L 77.487 15.676 v 8.455 c 0 1.689 1.369 3.058 3.058 3.058 H 89 z" style="stroke: none; stroke-width: 1; stroke-dasharray: none; stroke-linecap: butt; stroke-linejoin: miter; stroke-miterlimit: 10; fill: rgb(210,210,210); fill-rule: nonzero; opacity: 1;" transform=" matrix(1 0 0 1 0 0) " stroke-linecap="round"/>
	<path d="M 47.015 17.349 L 35.339 5.673 v 8.575 c 0 1.713 1.388 3.101 3.101 3.101 H 47.015 z" style="stroke: none; stroke-width: 1; stroke-dasharray: none; stroke-linecap: butt; stroke-linejoin: miter; stroke-miterlimit: 10; fill: rgb(210,210,210); fill-rule: nonzero; opacity: 1;" transform=" matrix(1 0 0 1 0 0) " stroke-linecap="round"/>
	<path d="M 76.63 32.882 c -2.671 0 -4.836 -2.165 -4.836 -4.836 v -13.37 h -24.79 c -0.037 0 -0.072 0.01 -0.109 0.011 l 6.12 6.12 v 49.497 c 0 5.524 -4.495 10.02 -10.02 10.02 h -1.009 c 0.009 2.764 2.251 5.003 5.018 5.003 H 84.98 c 2.772 0 5.02 -2.247 5.02 -5.02 V 32.882 H 76.63 z M 82.81 61.576 H 68.133 l 4.337 4.337 c 1.172 1.171 1.172 3.071 0 4.242 c -0.586 0.586 -1.354 0.879 -2.121 0.879 s -1.535 -0.293 -2.121 -0.879 l -9.454 -9.454 c -0.141 -0.141 -0.267 -0.296 -0.379 -0.462 c -0.046 -0.069 -0.077 -0.144 -0.117 -0.216 c -0.055 -0.099 -0.114 -0.195 -0.158 -0.3 c -0.04 -0.096 -0.063 -0.197 -0.092 -0.297 c -0.026 -0.088 -0.06 -0.172 -0.078 -0.263 c -0.077 -0.388 -0.077 -0.787 0 -1.174 c 0.018 -0.091 0.052 -0.175 0.078 -0.263 c 0.029 -0.1 0.052 -0.201 0.092 -0.297 c 0.044 -0.105 0.103 -0.201 0.158 -0.299 c 0.04 -0.072 0.071 -0.147 0.117 -0.216 c 0.111 -0.166 0.237 -0.322 0.379 -0.462 l 9.454 -9.454 c 1.172 -1.172 3.07 -1.172 4.242 0 c 1.172 1.171 1.172 3.071 0 4.242 l -4.337 4.337 H 82.81 c 1.657 0 3 1.343 3 3 S 84.467 61.576 82.81 61.576 z" style="stroke: none; stroke-width: 1; stroke-dasharray: none; stroke-linecap: butt; stroke-linejoin: miter; stroke-miterlimit: 10; fill: rgb(210,210,210); fill-rule: nonzero; opacity: 1;" transform=" matrix(1 0 0 1 0 0) " stroke-linecap="round"/>
	<path d="M 34.645 22.879 c -2.671 0 -4.836 -2.165 -4.836 -4.836 V 4.673 H 5.02 C 2.247 4.673 0 6.92 0 9.693 v 60.612 c 0 2.772 2.247 5.02 5.02 5.02 h 37.976 c 2.772 0 5.02 -2.247 5.02 -5.02 V 22.879 H 34.645 z M 37.907 49.166 c -0.025 0.124 -0.069 0.239 -0.108 0.357 c -0.023 0.067 -0.036 0.138 -0.063 0.203 c -0.055 0.133 -0.129 0.256 -0.202 0.378 c -0.027 0.045 -0.045 0.093 -0.074 0.136 c -0.11 0.164 -0.235 0.317 -0.374 0.456 l -9.455 9.455 c -0.585 0.586 -1.354 0.879 -2.121 0.879 s -1.536 -0.293 -2.121 -0.879 c -1.172 -1.171 -1.172 -3.071 0 -4.242 l 4.337 -4.337 H 13.048 c -1.657 0 -3 -1.343 -3 -3 s 1.343 -3 3 -3 h 14.677 l -4.336 -4.336 c -1.172 -1.172 -1.172 -3.071 0 -4.243 c 1.172 -1.172 3.072 -1.171 4.243 0 l 9.455 9.455 c 0.139 0.139 0.264 0.292 0.374 0.456 c 0.029 0.043 0.047 0.092 0.074 0.136 c 0.073 0.123 0.147 0.245 0.202 0.378 c 0.027 0.066 0.04 0.136 0.063 0.203 c 0.04 0.118 0.084 0.233 0.108 0.357 c 0.039 0.194 0.06 0.393 0.06 0.594 S 37.947 48.972 37.907 49.166 z" style="stroke: none; stroke-width: 1; stroke-dasharray: none; stroke-linecap: butt; stroke-linejoin: miter; stroke-miterlimit: 10; fill: rgb(210,210,210); fill-rule: nonzero; opacity: 1;" transform=" matrix(1 0 0 1 0 0) " stroke-linecap="round"/>
</g>
</svg>